<?xml version="1.0" encoding="UTF-8"?>
<svg width="529px" height="333px" viewBox="0 0 529 333" version="1.1" xmlns="http://www.w3.org/2000/svg" xmlns:xlink="http://www.w3.org/1999/xlink">
    <title>Slice</title>
    <g id="Page-1" stroke="none" stroke-width="1" fill="none" fill-rule="evenodd">
        <path d="M121.8673,25.0003917 C159.0373,25.0194 188.5623,54.8704 188.392039,92.2604 C188.2223,129.0764 158.6383,158.3554 121.7003,158.264612 C84.5703,158.1724 55.3863,128.6384 55.5327471,91.3004 C55.6793,54.2364 84.9493,24.9824 121.8673,25.0003917 Z M423.5074,26.8169 C426.1954,26.8169 428.0374,29.0929 429.0184,30.6179 C432.72304,36.3758 438.090124,44.7883384 443.560933,53.3847478 L444.527129,54.9031671 C454.837941,71.1092696 465.1914,87.4519 465.1914,87.4519 L465.1914,27.1049 L501.9064,27.1049 L501.9064,155.9929 L469.9624,155.9929 C467.6894,155.9929 466.1464,154.8139 464.6524,152.7919 C460.03831,145.573 453.371326,135.11072 446.851413,124.880025 L445.849806,123.308368 C436.017919,107.880922 426.78082,93.39133 425.7554,91.8709 L425.7554,156.0399 L388.7734,156.0399 L388.7734,26.8169 L423.5074,26.8169 Z M243.5144,26.9144 C267.1184,27.4784 285.7764,41.9224 290.9924,63.1834 C298.3404,93.1374 279.6294,120.4304 248.9694,124.3534 C243.9004,125.0024 238.7764,125.2124 233.2174,125.6624 L233.2174,155.9924 L195.8644,155.9924 L195.8644,28.1564 C195.8644,27.2154 196.2504,26.8004 197.2404,26.8004 C211.8964,26.8004 228.8664,26.5644 243.5144,26.9144 Z M304.7107,26.7739 L377.1787,26.8169 L377.1787,60.7129 L337.7997,60.7129 L337.7997,73.8969 L377.0127,73.8969 L377.0127,108.0149 L337.8877,108.0149 L337.8877,122.3089 L377.1697,122.3089 L377.1697,155.9929 L305.6677,155.9929 C302.5547,155.9929 300.4237,154.6159 300.4237,151.4179 C300.4237,111.4529 300.4217,71.4149 300.4237,31.4489 C300.4237,28.7859 301.3577,26.7739 304.7107,26.7739 Z M121.8153,61.7423236 C105.6533,61.7064 93.5153,74.3944 93.4611119,91.3804 C93.4063,108.6124 105.4213,121.5614 121.7393,121.8584 C137.5953,122.1484 150.4263,108.6644 150.4243,91.7124 C150.4223,74.4884 138.2903,61.7794 121.8153,61.7423236 Z M234.240164,60.6867313 L233.4604,60.6864 L233.4604,60.6864 L233.4604,90.7134724 L234.205637,90.7135352 C241.386083,90.7123621 247.865167,90.5903333 251.9474,84.3244 C255.5344,78.8204 255.7224,72.3774 251.9204,66.9174 C247.746469,60.9225034 241.483425,60.695274 234.240164,60.6867313 Z" id="OPEN" fill="#00205C"></path>
        <path d="M251.451,173.5343 C272.247,183.7133 276.569,214.2083 261.227,228.3593 C260.513,229.0183 259.6,229.9553 258.888,230.7433 C270.518,239.9663 273.798,252.4593 271.663,266.3233 C269.232,282.1133 259.416,292.2053 244.848,296.9463 C225.978,303.0883 202.811,301.4133 189.118,293.0033 C178.281,286.3483 171.376,269.9503 171.376,256.7793 L208.527,256.7793 C211.043,266.4403 218.442,270.5193 227.373,267.3603 C232.306,265.6153 234.649,262.2173 234.417,257.1423 C234.185,252.0763 229.401,248.4393 222.642,248.4393 L207.957,248.4253 L207.957,217.3173 L221.729,217.3103 C228.808,217.3103 233.844,214.3663 234.361,208.8633 C234.361,203.1903 232.083,199.3613 225.825,198.0353 C218.581,196.5003 212.551,199.5433 210.573,205.8123 C210.178,207.0663 210.095,208.4193 209.81,210.0653 L173.698,210.0653 C173.698,190.9483 184.373,175.5233 201.859,170.2543 C218.678,165.1853 237.583,166.7383 251.451,173.5343 Z M422.6807,168.8696 C426.2167,168.8696 428.0267,170.0926 429.6397,173.0646 C434.1327,181.3406 438.9337,189.4506 444.0887,198.4566 C449.2437,189.4506 454.0447,181.3406 458.5367,173.0646 C460.1507,170.0926 461.9597,168.8696 465.4967,168.8696 L465.4967,168.8696 L500.1057,168.8696 C500.1057,168.8696 476.1687,211.3246 466.4227,228.3866 C464.7867,231.2136 464.8537,233.3046 466.4677,236.0986 C470.23082,242.64734 475.531651,251.97441 480.889533,261.433512 L482.308112,263.938658 C492.233247,281.470815 501.9057,298.6546 501.9057,298.6546 L501.9057,298.6546 L466.5017,298.6546 C463.4217,298.6546 461.6947,297.7196 460.2197,295.0426 C455.0097,285.5826 449.9117,276.9046 444.0887,266.7106 C438.2647,276.9046 433.1667,285.5826 427.9567,295.0426 C426.4837,297.7196 424.7557,298.6546 421.6757,298.6546 L421.6757,298.6546 L386.2717,298.6546 C386.2717,298.6546 395.0449,283.0684 404.453932,266.439064 L405.396653,264.773192 L405.396653,264.773192 L406.341805,263.103597 C412.016391,253.081326 417.72458,243.03256 421.7087,236.0986 C423.3237,233.3046 423.3907,231.2136 421.7547,228.3866 C418.24578,222.24428 412.897966,212.811027 407.490017,203.252358 L406.58844,201.658628 C397.272698,185.189302 388.0717,168.8696 388.0717,168.8696 L388.0717,168.8696 Z M302.5216,168.8696 C306.0576,168.8696 307.8676,170.0926 309.4806,173.0646 C313.9736,181.3406 318.7746,189.4506 323.9296,198.4566 C329.0846,189.4506 333.8856,181.3406 338.3776,173.0646 C339.9916,170.0926 341.8006,168.8696 345.3376,168.8696 L345.3376,168.8696 L379.9466,168.8696 C379.9466,168.8696 356.0096,211.3246 346.2636,228.3866 C344.6276,231.2136 344.6946,233.3046 346.3086,236.0986 C350.07172,242.64734 355.372551,251.97441 360.730433,261.433512 L362.149012,263.938658 C372.074147,281.470815 381.7466,298.6546 381.7466,298.6546 L381.7466,298.6546 L346.3426,298.6546 C343.2626,298.6546 341.5356,297.7196 340.0606,295.0426 C334.8506,285.5826 329.7526,276.9046 323.9296,266.7106 C318.1056,276.9046 313.0076,285.5826 307.7986,295.0426 C306.3246,297.7196 304.5966,298.6546 301.5166,298.6546 L301.5166,298.6546 L266.1126,298.6546 C266.1126,298.6546 276.094552,280.920968 286.182705,263.103597 L287.128479,261.433512 C292.486213,251.97441 297.78682,242.64734 301.5496,236.0986 C303.1646,233.3046 303.2316,231.2136 301.5956,228.3866 C298.08668,222.24428 292.738995,212.811027 287.331212,203.252358 L286.429664,201.658628 L286.429664,201.658628 L285.528832,200.065832 C276.5302,184.1534 267.9136,168.8696 267.9136,168.8696 L267.9136,168.8696 Z M164.7048,168.8701 L164.7048,298.6541 L127.6958,298.6541 L127.6958,229.3941 L113.3188,252.9571 L121.8638,252.9571 L121.8638,286.2401 L97.2588,286.2401 C94.6868,286.2401 92.6098,287.0171 91.0508,289.5781 L91.0508,289.5781 L87.6078,295.2201 C86.8168,296.5151 85.6078,298.6541 83.1718,298.6541 L83.1718,298.6541 L42.9998,298.6541 C42.9998,298.6541 66.3666908,261.662077 89.9084576,224.473781 L92.0484546,221.09351 C103.457458,203.073436 114.74236,185.26934 123.2598,171.8751 C124.0978,170.5571 125.8198,168.8701 128.2588,168.8701 L128.2588,168.8701 L164.7048,168.8701 Z" id="A3XX" fill="#0061ED"></path>
    </g>
</svg>